<?xml version="1.0" encoding="iso-8859-1"?>
<!DOCTYPE svg PUBLIC "-//W3C//DTD SVG 1.1//EN" "http://www.w3.org/Graphics/SVG/1.1/DTD/svg11.dtd">
<svg xmlns="http://www.w3.org/2000/svg" x="0px" y="0px"
width="100" height="100"
viewBox="0 0 172 172"
style=" fill:#000000;"><g fill="none" fill-rule="nonzero" stroke="none" stroke-width="1" stroke-linecap="butt" stroke-linejoin="miter" stroke-miterlimit="10" stroke-dasharray="" stroke-dashoffset="0" font-family="none" font-weight="none" font-size="none" text-anchor="none" style="mix-blend-mode: normal"><path d="M0,172v-172h172v172z" fill="none"></path><g fill="#ffffff"><path d="M53.32,29.24c-13.27907,0 -24.08,10.80093 -24.08,24.08v65.36c0,13.27907 10.80093,24.08 24.08,24.08h65.36c13.27907,0 24.08,-10.80093 24.08,-24.08v-65.36c0,-13.27907 -10.80093,-24.08 -24.08,-24.08zM53.32,32.68h65.36c11.42013,0 20.64,9.21987 20.64,20.64v65.36c0,11.42013 -9.21987,20.64 -20.64,20.64h-65.36c-11.42013,0 -20.64,-9.21987 -20.64,-20.64v-65.36c0,-11.42013 9.21987,-20.64 20.64,-20.64zM58.65133,39.56c-10.5337,0 -19.09133,8.55763 -19.09133,19.09133v54.69735c0,10.5337 8.55763,19.09133 19.09133,19.09133h54.69735c10.5337,0 19.09133,-8.55763 19.09133,-19.09133v-24.76867c0.00439,-0.31015 -0.15856,-0.59863 -0.42645,-0.75498c-0.26789,-0.15635 -0.59921,-0.15635 -0.8671,0c-0.26789,0.15635 -0.43084,0.44484 -0.42645,0.75498v24.76867c0,9.60406 -7.76727,17.37133 -17.37133,17.37133h-54.69735c-9.60406,0 -17.37133,-7.76727 -17.37133,-17.37133v-54.69735c0,-9.60406 7.76727,-17.37133 17.37133,-17.37133h45.40867c0.31015,0.00439 0.59863,-0.15856 0.75498,-0.42645c0.15635,-0.26789 0.15635,-0.59921 0,-0.8671c-0.15635,-0.26789 -0.44484,-0.43084 -0.75498,-0.42645zM86,61.92c-8.29212,0 -12.43641,3.78185 -12.43641,11.34125c0,5.24256 1.96058,8.67133 5.88563,10.28641c-4.80568,1.92124 -7.20922,6.00632 -7.20922,12.25164v0.78609c0,4.62852 1.2563,8.03654 3.76922,10.21922c2.51464,2.1844 5.84386,3.27539 9.99078,3.27539c4.1452,0 7.47614,-1.09271 9.99078,-3.27539c2.51292,-2.1844 3.76922,-5.5907 3.76922,-10.21922v-0.78609c0,-6.29004 -2.38271,-10.37512 -7.14539,-12.25164c3.88032,-1.6168 5.8218,-5.04557 5.8218,-10.28641c0,-7.5594 -4.14601,-11.34125 -12.43641,-11.34125zM86,65.64555c5.46788,0 8.20359,2.64576 8.20359,7.9382c0,5.38016 -2.73571,8.07258 -8.20359,8.07258c-5.42488,0 -8.13641,-2.69242 -8.13641,-8.07258c0,-5.29416 2.71153,-7.9382 8.13641,-7.9382zM131.56656,67.06656c-0.22809,0.00356 -0.44542,0.09758 -0.60418,0.26138c-0.15876,0.1638 -0.24595,0.38397 -0.24238,0.61205v3.44c-0.00439,0.31015 0.15856,0.59863 0.42645,0.75498c0.26789,0.15635 0.59921,0.15635 0.8671,0c0.26789,-0.15635 0.43084,-0.44484 0.42645,-0.75498v-3.44c0.00364,-0.23275 -0.08721,-0.45703 -0.25181,-0.62163c-0.1646,-0.1646 -0.38888,-0.25545 -0.62163,-0.25181zM131.56656,75.66656c-0.22809,0.00356 -0.44542,0.09758 -0.60418,0.26138c-0.15876,0.1638 -0.24595,0.38397 -0.24238,0.61205v6.88c-0.00439,0.31015 0.15856,0.59863 0.42645,0.75498c0.26789,0.15635 0.59921,0.15635 0.8671,0c0.26789,-0.15635 0.43084,-0.44484 0.42645,-0.75498v-6.88c0.00364,-0.23275 -0.08721,-0.45703 -0.25181,-0.62163c-0.1646,-0.1646 -0.38888,-0.25545 -0.62163,-0.25181zM85.99664,85.63719c6.26252,0 9.39617,3.25886 9.39617,9.76906v0.92047c0,3.32304 -0.80547,5.82097 -2.41539,7.50485c-1.60992,1.68388 -3.91564,2.52625 -6.9136,2.52625c-2.99968,0 -5.32278,-0.84237 -6.97742,-2.52625c-1.65292,-1.68388 -2.48258,-4.18181 -2.48258,-7.50485v-0.92047c0,-6.5102 3.12857,-9.76906 9.39281,-9.76906z"></path></g></g></svg>
