<?xml version="1.0" encoding="iso-8859-1"?>
<!DOCTYPE svg PUBLIC "-//W3C//DTD SVG 1.1//EN" "http://www.w3.org/Graphics/SVG/1.1/DTD/svg11.dtd">
<svg xmlns="http://www.w3.org/2000/svg" x="0px" y="0px"
width="100" height="100"
viewBox="0 0 172 172"
style=" fill:#000000;"><g fill="none" fill-rule="nonzero" stroke="none" stroke-width="1" stroke-linecap="butt" stroke-linejoin="miter" stroke-miterlimit="10" stroke-dasharray="" stroke-dashoffset="0" font-family="none" font-weight="none" font-size="none" text-anchor="none" style="mix-blend-mode: normal"><path d="M0,172v-172h172v172z" fill="none"></path><g fill="#ffffff"><path d="M53.32,29.24c-13.27907,0 -24.08,10.80093 -24.08,24.08v65.36c0,13.27907 10.80093,24.08 24.08,24.08h65.36c13.27907,0 24.08,-10.80093 24.08,-24.08v-65.36c0,-13.27907 -10.80093,-24.08 -24.08,-24.08zM53.32,32.68h65.36c11.42013,0 20.64,9.21987 20.64,20.64v65.36c0,11.42013 -9.21987,20.64 -20.64,20.64h-65.36c-11.42013,0 -20.64,-9.21987 -20.64,-20.64v-65.36c0,-11.42013 9.21987,-20.64 20.64,-20.64zM57.62,37.84c-10.9138,0 -19.78,8.8662 -19.78,19.78v56.76c0,10.9138 8.8662,19.78 19.78,19.78h56.76c10.9138,0 19.78,-8.8662 19.78,-19.78v-29.24c0.00439,-0.31015 -0.15856,-0.59863 -0.42645,-0.75498c-0.26789,-0.15635 -0.59921,-0.15635 -0.8671,0c-0.26789,0.15635 -0.43084,0.44484 -0.42645,0.75498v29.24c0,9.9842 -8.0758,18.06 -18.06,18.06h-56.76c-9.9842,0 -18.06,-8.0758 -18.06,-18.06v-56.76c0,-9.9842 8.0758,-18.06 18.06,-18.06h56.76c0.54574,0 1.09089,0.03381 1.64273,0.08398c0.30607,0.02765 0.60364,-0.11011 0.7806,-0.36136c0.17696,-0.25126 0.20641,-0.57784 0.07727,-0.85671c-0.12914,-0.27887 -0.39726,-0.46764 -0.70334,-0.49521c-0.58335,-0.05303 -1.18028,-0.0907 -1.79727,-0.0907zM71.56812,61.92c-0.60716,0 -1.14786,0.3257 -1.62258,0.97758c0,0 -5.89863,8.15734 -6.06031,8.48242c-0.1634,0.3268 -0.24523,0.6766 -0.24523,1.04812c0,0.52116 0.16203,0.96723 0.48711,1.33703c0.32508,0.3698 0.7245,0.5543 1.20266,0.5543c0.47644,0 0.88545,-0.26157 1.23289,-0.78273l2.60352,-4.24289v38.69664c0,0.52288 0.20196,0.93853 0.61476,1.24297c0.41108,0.30444 0.92136,0.45688 1.52852,0.45688c0.56244,0 1.06148,-0.15244 1.49492,-0.45688c0.43344,-0.30272 0.64836,-0.72009 0.64836,-1.24297v-44.43781c0,-0.47816 -0.19409,-0.87134 -0.58453,-1.17578c-0.39044,-0.30444 -0.82364,-0.45687 -1.30008,-0.45687zM94.91578,61.92c-4.17616,0 -7.50382,1.11985 -9.98406,3.36273c-2.48024,2.2446 -3.71883,5.76324 -3.71883,10.55516v20.25703c0,4.83492 1.22735,8.3761 3.68523,10.61898c2.45788,2.2446 5.75348,3.36609 9.88664,3.36609c4.13316,0 7.42876,-1.12149 9.88664,-3.36609c2.45788,-2.24288 3.68859,-5.78234 3.68859,-10.61898v-1.56883c0,-8.6688 -4.33058,-13.00414 -12.98734,-13.00414c-4.4376,0 -7.72197,1.43432 -9.85305,4.30672v-9.99414c0,-6.62028 3.09028,-9.93031 9.26852,-9.93031c2.61096,0 4.80573,0.6755 6.59109,2.0257c1.78364,1.35192 2.67406,3.13596 2.67406,5.3582c0,1.17648 0.76045,1.76703 2.28437,1.76703c1.34848,0 2.02234,-0.65467 2.02234,-1.96187c0,-3.04956 -1.19865,-5.67114 -3.59117,-7.87102c-2.39252,-2.19988 -5.67689,-3.30227 -9.85305,-3.30227zM133.28656,63.62656c-0.22809,0.00356 -0.44542,0.09758 -0.60418,0.26138c-0.15876,0.1638 -0.24595,0.38397 -0.24238,0.61205v3.44c-0.00439,0.31015 0.15856,0.59863 0.42645,0.75498c0.26789,0.15635 0.59921,0.15635 0.8671,0c0.26789,-0.15635 0.43084,-0.44484 0.42645,-0.75498v-3.44c0.00364,-0.23275 -0.08721,-0.45703 -0.25181,-0.62163c-0.1646,-0.1646 -0.38888,-0.25545 -0.62163,-0.25181zM133.28656,72.22656c-0.22809,0.00356 -0.44542,0.09758 -0.60418,0.26138c-0.15876,0.1638 -0.24595,0.38397 -0.24238,0.61205v6.88c-0.00439,0.31015 0.15856,0.59863 0.42645,0.75498c0.26789,0.15635 0.59921,0.15635 0.8671,0c0.26789,-0.15635 0.43084,-0.44484 0.42645,-0.75498v-6.88c0.00364,-0.23275 -0.08721,-0.45703 -0.25181,-0.62163c-0.1646,-0.1646 -0.38888,-0.25545 -0.62163,-0.25181zM94.78477,85.2475c6.17652,0 9.26516,3.13833 9.26516,9.41633v1.55875c0,6.579 -3.08864,9.86985 -9.26516,9.86985c-6.17824,0 -9.26516,-3.28913 -9.26516,-9.86985v-2.14328c0,-5.88756 3.08692,-8.8318 9.26516,-8.8318z"></path></g></g></svg>
