<?xml version="1.0" encoding="iso-8859-1"?>
<!DOCTYPE svg PUBLIC "-//W3C//DTD SVG 1.1//EN" "http://www.w3.org/Graphics/SVG/1.1/DTD/svg11.dtd">
<svg xmlns="http://www.w3.org/2000/svg" x="0px" y="0px"
width="100" height="100"
viewBox="0 0 172 172"
style=" fill:#000000;"><g fill="none" fill-rule="nonzero" stroke="none" stroke-width="1" stroke-linecap="butt" stroke-linejoin="miter" stroke-miterlimit="10" stroke-dasharray="" stroke-dashoffset="0" font-family="none" font-weight="none" font-size="none" text-anchor="none" style="mix-blend-mode: normal"><path d="M0,172v-172h172v172z" fill="none"></path><g fill="#ffffff"><path d="M53.32,29.24c-13.27907,0 -24.08,10.80093 -24.08,24.08v65.36c0,13.27907 10.80093,24.08 24.08,24.08h65.36c13.27907,0 24.08,-10.80093 24.08,-24.08v-65.36c0,-13.27907 -10.80093,-24.08 -24.08,-24.08zM53.32,32.68h65.36c11.42013,0 20.64,9.21987 20.64,20.64v65.36c0,11.42013 -9.21987,20.64 -20.64,20.64h-65.36c-11.42013,0 -20.64,-9.21987 -20.64,-20.64v-65.36c0,-11.42013 9.21987,-20.64 20.64,-20.64zM58.65133,39.56c-10.5337,0 -19.09133,8.55763 -19.09133,19.09133v54.69735c0,10.5337 8.55763,19.09133 19.09133,19.09133h54.69735c10.5337,0 19.09133,-8.55763 19.09133,-19.09133v-24.76867c0.00439,-0.31015 -0.15856,-0.59863 -0.42645,-0.75498c-0.26789,-0.15635 -0.59921,-0.15635 -0.8671,0c-0.26789,0.15635 -0.43084,0.44484 -0.42645,0.75498v24.76867c0,9.60406 -7.76727,17.37133 -17.37133,17.37133h-54.69735c-9.60406,0 -17.37133,-7.76727 -17.37133,-17.37133v-54.69735c0,-9.60406 7.76727,-17.37133 17.37133,-17.37133h45.40867c0.31015,0.00439 0.59863,-0.15856 0.75498,-0.42645c0.15635,-0.26789 0.15635,-0.59921 0,-0.8671c-0.15635,-0.26789 -0.44484,-0.43084 -0.75498,-0.42645zM72.06195,61.92c-0.61232,0 -1.1595,0.3289 -1.63938,0.98766c0,0 -5.94394,8.22109 -6.10734,8.54961c-0.16512,0.33024 -0.24859,0.6816 -0.24859,1.05484c0,0.52632 0.16367,0.97895 0.49047,1.35047c0.32852,0.37324 0.73113,0.55766 1.21273,0.55766c0.4816,0 0.89545,-0.26313 1.24633,-0.78945l2.62031,-4.27648v39.01578c0,0.52632 0.20524,0.94353 0.62148,1.24969c0.41452,0.30788 0.92627,0.46023 1.5386,0.46023c0.5676,0 1.07148,-0.15407 1.50836,-0.46023c0.43688,-0.30616 0.65508,-0.72337 0.65508,-1.24969v-44.80398c0,-0.48332 -0.19573,-0.87798 -0.58789,-1.18586c-0.39388,-0.30616 -0.83028,-0.46023 -1.31016,-0.46023zM94.59664,61.98383c-3.5174,0 -6.4632,1.03342 -8.83852,3.09399c-2.37532,2.06228 -3.56094,4.66942 -3.56094,7.82734c0,1.79912 0.65615,2.69758 1.97195,2.69758c0.70176,0 1.26345,-0.17482 1.67969,-0.52742c0.41624,-0.3526 0.62485,-0.77301 0.62485,-1.25977c0,-2.51636 0.73979,-4.44816 2.21383,-5.79492c1.47576,-1.34676 3.39936,-2.02234 5.77813,-2.02234c2.81736,0 5.00746,0.87763 6.57094,2.63375c1.56176,1.75784 2.34484,3.77951 2.34484,6.06367c0,2.11044 -0.77013,4.16581 -2.31125,6.16445c-1.5394,1.99864 -3.41192,3.7876 -5.61352,5.36828l-6.47016,4.67961c-2.16032,1.58068 -3.9975,3.31847 -5.50938,5.20703c-1.51188,1.88856 -2.26422,3.84111 -2.26422,5.86211v6.38953c0,0.48332 0.21648,0.89093 0.65508,1.21945c0.4386,0.32852 0.89746,0.49383 1.37735,0.49383h23.36445c0.43688,0 0.81251,-0.2086 1.11867,-0.62484c0.30788,-0.41624 0.46024,-0.88798 0.46024,-1.4143c0,-0.52632 -0.15744,-0.98682 -0.4636,-1.3807c-0.30788,-0.39388 -0.68343,-0.59125 -1.12203,-0.59125h-21.04985v-4.085c0,-1.36224 0.55037,-2.73735 1.64945,-4.12195c1.1008,-1.38288 2.46288,-2.62311 4.09172,-3.72219l5.35148,-3.82297c1.93328,-1.44996 3.71601,-2.87796 5.34141,-4.2832c1.6254,-1.40696 2.991,-3.11884 4.08836,-5.13984c1.09908,-2.021 1.64945,-4.12926 1.64945,-6.3257c0,-3.58276 -1.24187,-6.57513 -3.72555,-8.97625c-2.48712,-2.40284 -5.62233,-3.60797 -9.40289,-3.60797zM131.56656,67.06656c-0.22809,0.00356 -0.44542,0.09758 -0.60418,0.26138c-0.15876,0.1638 -0.24595,0.38397 -0.24238,0.61205v3.44c-0.00439,0.31015 0.15856,0.59863 0.42645,0.75498c0.26789,0.15635 0.59921,0.15635 0.8671,0c0.26789,-0.15635 0.43084,-0.44484 0.42645,-0.75498v-3.44c0.00364,-0.23275 -0.08721,-0.45703 -0.25181,-0.62163c-0.1646,-0.1646 -0.38888,-0.25545 -0.62163,-0.25181zM131.56656,75.66656c-0.22809,0.00356 -0.44542,0.09758 -0.60418,0.26138c-0.15876,0.1638 -0.24595,0.38397 -0.24238,0.61205v6.88c-0.00439,0.31015 0.15856,0.59863 0.42645,0.75498c0.26789,0.15635 0.59921,0.15635 0.8671,0c0.26789,-0.15635 0.43084,-0.44484 0.42645,-0.75498v-6.88c0.00364,-0.23275 -0.08721,-0.45703 -0.25181,-0.62163c-0.1646,-0.1646 -0.38888,-0.25545 -0.62163,-0.25181z"></path></g></g></svg>
